<?xml version="1.0" standalone="no"?><!DOCTYPE svg PUBLIC "-//W3C//DTD SVG 1.1//EN" "http://www.w3.org/Graphics/SVG/1.1/DTD/svg11.dtd"><svg width="327.33638443208787" height="261.35625" viewBox="0 0 200 159.68664800488946" class="css-1j8o68f" version="1.1" xmlns="http://www.w3.org/2000/svg" xmlns:xlink="http://www.w3.org/1999/xlink" style="block-size:261.344px;height:261.344px;inline-size:327.328px;perspective-origin:163.656px 130.672px;touch-action:none;transform-origin:163.664px 130.672px;width:327.328px;"><defs id="SvgjsDefs1011" style="block-size:auto;height:auto;inline-size:auto;overflow-clip-margin:0px;overflow-x:visible;overflow-y:visible;perspective-origin:0px 0px;transform-origin:0px 0px;width:auto;"/><g id="SvgjsG1012" featurekey="mugSzh-0" transform="matrix(1.0178116257986112,0,0,1.0178116257986112,48.60050998518771,7.804072116215277)" fill="#39e991" style="block-size:auto;fill:rgb(57, 233, 145);height:auto;inline-size:auto;overflow-clip-margin:0px;overflow-x:visible;overflow-y:visible;perspective-origin:0px 0px;touch-action:none;transform:matrix(1.01781, 0, 0, 1.01781, 48.6005, 7.80407);transform-origin:0px 0px;user-select:none;width:auto;"><path xmlns="http://www.w3.org/2000/svg" d="M29.5,25.5c2.5,0,4.6-2.1,4.6-4.6s-2.1-4.6-4.6-4.6c-2.5,0-4.6,2.1-4.6,4.6S27,25.5,29.5,25.5z M27,58  c0,0.7,0.6,1.3,1.3,1.3c0.7,0,1.3-0.6,1.3-1.3s-0.6-1.3-1.3-1.3C27.6,56.7,27,57.3,27,58z M36.2,31.3c1.1,0,1.9-0.9,1.9-1.9  c0-1.1-0.9-1.9-1.9-1.9c-1.1,0-1.9,0.9-1.9,1.9C34.3,30.4,35.1,31.3,36.2,31.3z M21.1,48.6c2.5,0,4.6-2.1,4.6-4.6  c0-2.5-2.1-4.6-4.6-4.6s-4.6,2.1-4.6,4.6C16.6,46.5,18.6,48.6,21.1,48.6z M14.5,37.8c1.1,0,1.9-0.9,1.9-1.9c0-1.1-0.9-1.9-1.9-1.9  c-1.1,0-1.9,0.9-1.9,1.9C12.6,37,13.4,37.8,14.5,37.8z M13.8,42c0-0.7-0.6-1.3-1.3-1.3c-0.7,0-1.3,0.6-1.3,1.3s0.6,1.3,1.3,1.3  C13.2,43.3,13.8,42.7,13.8,42z M19.9,31.2c1.8,0,3.2-1.4,3.2-3.2s-1.4-3.2-3.2-3.2c-1.8,0-3.2,1.4-3.2,3.2S18.1,31.2,19.9,31.2z   M58.8,13.6c0.7,0,1.3-0.6,1.3-1.3c0-0.7-0.6-1.3-1.3-1.3c-0.7,0-1.3,0.6-1.3,1.3C57.5,13,58.1,13.6,58.8,13.6z M23.8,57.5  c0-3.1-2.5-5.6-5.6-5.6c-3.1,0-5.6,2.5-5.6,5.6s2.5,5.6,5.6,5.6C21.3,63.1,23.8,60.6,23.8,57.5z M79.9,33.9c2.5,0,4.6-2.1,4.6-4.6  s-2.1-4.6-4.6-4.6s-4.6,2.1-4.6,4.6S77.3,33.9,79.9,33.9z M69.6,65.5c0,1.8,1.4,3.2,3.2,3.2c1.8,0,3.2-1.4,3.2-3.2s-1.4-3.2-3.2-3.2  C71,62.3,69.6,63.7,69.6,65.5z M72.8,22.9c1.8,0,3.2-1.4,3.2-3.2c0-1.8-1.4-3.2-3.2-3.2c-1.8,0-3.2,1.4-3.2,3.2  C69.6,21.5,71,22.9,72.8,22.9z M65.7,31.2c1.8,0,3.2-1.4,3.2-3.2s-1.4-3.2-3.2-3.2c-1.8,0-3.2,1.4-3.2,3.2S63.9,31.2,65.7,31.2z   M77.2,42.5c0,3.1,2.5,5.6,5.6,5.6c3.1,0,5.6-2.5,5.6-5.6s-2.5-5.6-5.6-5.6C79.7,36.9,77.2,39.4,77.2,42.5z M74,42  c0-0.7-0.6-1.3-1.3-1.3c-0.7,0-1.3,0.6-1.3,1.3s0.6,1.3,1.3,1.3C73.4,43.3,74,42.7,74,42z M64.8,16.1c1.1,0,1.9-0.9,1.9-1.9  s-0.9-1.9-1.9-1.9c-1.1,0-1.9,0.9-1.9,1.9S63.8,16.1,64.8,16.1z M70.8,37.8c1.1,0,1.9-0.9,1.9-1.9c0-1.1-0.9-1.9-1.9-1.9  s-1.9,0.9-1.9,1.9C68.9,37,69.8,37.8,70.8,37.8z M31.4,34.5c0-1.8-1.4-3.2-3.2-3.2c-1.8,0-3.2,1.4-3.2,3.2s1.4,3.2,3.2,3.2  C30,37.7,31.4,36.3,31.4,34.5z M64.8,68.7c-1.1,0-1.9,0.9-1.9,1.9c0,1.1,0.9,1.9,1.9,1.9c1.1,0,1.9-0.9,1.9-1.9  C66.7,69.6,65.9,68.7,64.8,68.7z M58.3,76.4c-3.1,0-5.6,2.5-5.6,5.6s2.5,5.6,5.6,5.6c3.1,0,5.6-2.5,5.6-5.6S61.4,76.4,58.3,76.4z   M71.5,74.5c-2.5,0-4.6,2.1-4.6,4.6s2.1,4.6,4.6,4.6c2.5,0,4.6-2.1,4.6-4.6S74,74.5,71.5,74.5z M57.5,72.5c0,0.7,0.6,1.3,1.3,1.3  c0.7,0,1.3-0.6,1.3-1.3c0-0.7-0.6-1.3-1.3-1.3C58.1,71.3,57.5,71.8,57.5,72.5z M88.5,56.7c-0.7,0-1.3,0.6-1.3,1.3s0.6,1.3,1.3,1.3  c0.7,0,1.3-0.6,1.3-1.3S89.1,56.7,88.5,56.7z M86.5,62.2c-1.1,0-1.9,0.9-1.9,1.9c0,1.1,0.9,1.9,1.9,1.9c1.1,0,1.9-0.9,1.9-1.9  C88.4,63,87.6,62.2,86.5,62.2z M56.2,25.5c2.5,0,4.6-2.1,4.6-4.6s-2.1-4.6-4.6-4.6s-4.6,2.1-4.6,4.6S53.7,25.5,56.2,25.5z   M79.9,51.4c-2.5,0-4.6,2.1-4.6,4.6c0,2.5,2.1,4.6,4.6,4.6s4.6-2.1,4.6-4.6C84.4,53.5,82.4,51.4,79.9,51.4z M21.1,66.1  c-2.5,0-4.6,2.1-4.6,4.6s2.1,4.6,4.6,4.6s4.6-2.1,4.6-4.6S23.7,66.1,21.1,66.1z M81.1,68.8c-1.8,0-3.2,1.4-3.2,3.2s1.4,3.2,3.2,3.2  c1.8,0,3.2-1.4,3.2-3.2S82.9,68.8,81.1,68.8z M30.2,62.2c-1.1,0-1.9,0.9-1.9,1.9c0,1.1,0.9,1.9,1.9,1.9s1.9-0.9,1.9-1.9  C32.1,63,31.2,62.2,30.2,62.2z M35.3,68.8c-1.8,0-3.2,1.4-3.2,3.2s1.4,3.2,3.2,3.2c1.8,0,3.2-1.4,3.2-3.2S37.1,68.8,35.3,68.8z   M36.2,83.9c-1.1,0-1.9,0.9-1.9,1.9s0.9,1.9,1.9,1.9c1.1,0,1.9-0.9,1.9-1.9S37.2,83.9,36.2,83.9z M28.2,77.1c-1.8,0-3.2,1.4-3.2,3.2  c0,1.8,1.4,3.2,3.2,3.2c1.8,0,3.2-1.4,3.2-3.2C31.4,78.5,30,77.1,28.2,77.1z M41,27.5c0,0.7,0.6,1.3,1.3,1.3c0.7,0,1.3-0.6,1.3-1.3  c0-0.7-0.6-1.3-1.3-1.3C41.5,26.2,41,26.8,41,27.5z M48.3,17.9c0-3.1-2.5-5.6-5.6-5.6c-3.1,0-5.6,2.5-5.6,5.6s2.5,5.6,5.6,5.6  C45.8,23.6,48.3,21.1,48.3,17.9z M42.2,86.4c-0.7,0-1.3,0.6-1.3,1.3c0,0.7,0.6,1.3,1.3,1.3c0.7,0,1.3-0.6,1.3-1.3  C43.5,87,42.9,86.4,42.2,86.4z M44.8,74.5c-2.5,0-4.6,2.1-4.6,4.6s2.1,4.6,4.6,4.6s4.6-2.1,4.6-4.6S47.3,74.5,44.8,74.5z" style="block-size:auto;d:path(&quot;M 29.5 25.5 C 32 25.5 34.1 23.4 34.1 20.9 S 32 16.3 29.5 16.3 C 27 16.3 24.9 18.4 24.9 20.9 S 27 25.5 29.5 25.5 Z M 27 58 C 27 58.7 27.6 59.3 28.3 59.3 C 29 59.3 29.6 58.7 29.6 58 S 29 56.7 28.3 56.7 C 27.6 56.7 27 57.3 27 58 Z M 36.2 31.3 C 37.3 31.3 38.1 30.4 38.1 29.4 C 38.1 28.3 37.2 27.5 36.2 27.5 C 35.1 27.5 34.3 28.4 34.3 29.4 C 34.3 30.4 35.1 31.3 36.2 31.3 Z M 21.1 48.6 C 23.6 48.6 25.7 46.5 25.7 44 C 25.7 41.5 23.6 39.4 21.1 39.4 S 16.5 41.5 16.5 44 C 16.6 46.5 18.6 48.6 21.1 48.6 Z M 14.5 37.8 C 15.6 37.8 16.4 36.9 16.4 35.9 C 16.4 34.8 15.5 34 14.5 34 C 13.4 34 12.6 34.9 12.6 35.9 C 12.6 37 13.4 37.8 14.5 37.8 Z M 13.8 42 C 13.8 41.3 13.2 40.7 12.5 40.7 C 11.8 40.7 11.2 41.3 11.2 42 S 11.8 43.3 12.5 43.3 C 13.2 43.3 13.8 42.7 13.8 42 Z M 19.9 31.2 C 21.7 31.2 23.1 29.8 23.1 28 S 21.7 24.8 19.9 24.8 C 18.1 24.8 16.7 26.2 16.7 28 S 18.1 31.2 19.9 31.2 Z M 58.8 13.6 C 59.5 13.6 60.1 13 60.1 12.3 C 60.1 11.6 59.5 11 58.8 11 C 58.1 11 57.5 11.6 57.5 12.3 C 57.5 13 58.1 13.6 58.8 13.6 Z M 23.8 57.5 C 23.8 54.4 21.3 51.9 18.2 51.9 C 15.1 51.9 12.6 54.4 12.6 57.5 S 15.1 63.1 18.2 63.1 C 21.3 63.1 23.8 60.6 23.8 57.5 Z M 79.9 33.9 C 82.4 33.9 84.5 31.8 84.5 29.3 S 82.4 24.7 79.9 24.7 S 75.3 26.8 75.3 29.3 S 77.3 33.9 79.9 33.9 Z M 69.6 65.5 C 69.6 67.3 71 68.7 72.8 68.7 C 74.6 68.7 76 67.3 76 65.5 S 74.6 62.3 72.8 62.3 C 71 62.3 69.6 63.7 69.6 65.5 Z M 72.8 22.9 C 74.6 22.9 76 21.5 76 19.7 C 76 17.9 74.6 16.5 72.8 16.5 C 71 16.5 69.6 17.9 69.6 19.7 C 69.6 21.5 71 22.9 72.8 22.9 Z M 65.7 31.2 C 67.5 31.2 68.9 29.8 68.9 28 S 67.5 24.8 65.7 24.8 C 63.9 24.8 62.5 26.2 62.5 28 S 63.9 31.2 65.7 31.2 Z M 77.2 42.5 C 77.2 45.6 79.7 48.1 82.8 48.1 C 85.9 48.1 88.4 45.6 88.4 42.5 S 85.9 36.9 82.8 36.9 C 79.7 36.9 77.2 39.4 77.2 42.5 Z M 74 42 C 74 41.3 73.4 40.7 72.7 40.7 C 72 40.7 71.4 41.3 71.4 42 S 72 43.3 72.7 43.3 C 73.4 43.3 74 42.7 74 42 Z M 64.8 16.1 C 65.9 16.1 66.7 15.2 66.7 14.2 S 65.8 12.3 64.8 12.3 C 63.7 12.3 62.9 13.2 62.9 14.2 S 63.8 16.1 64.8 16.1 Z M 70.8 37.8 C 71.9 37.8 72.7 36.9 72.7 35.9 C 72.7 34.8 71.8 34 70.8 34 S 68.9 34.9 68.9 35.9 C 68.9 37 69.8 37.8 70.8 37.8 Z M 31.4 34.5 C 31.4 32.7 30 31.3 28.2 31.3 C 26.4 31.3 25 32.7 25 34.5 S 26.4 37.7 28.2 37.7 C 30 37.7 31.4 36.3 31.4 34.5 Z M 64.8 68.7 C 63.7 68.7 62.9 69.6 62.9 70.6 C 62.9 71.7 63.8 72.5 64.8 72.5 C 65.9 72.5 66.7 71.6 66.7 70.6 C 66.7 69.6 65.9 68.7 64.8 68.7 Z M 58.3 76.4 C 55.2 76.4 52.7 78.9 52.7 82 S 55.2 87.6 58.3 87.6 C 61.4 87.6 63.9 85.1 63.9 82 S 61.4 76.4 58.3 76.4 Z M 71.5 74.5 C 69 74.5 66.9 76.6 66.9 79.1 S 69 83.7 71.5 83.7 C 74 83.7 76.1 81.6 76.1 79.1 S 74 74.5 71.5 74.5 Z M 57.5 72.5 C 57.5 73.2 58.1 73.8 58.8 73.8 C 59.5 73.8 60.1 73.2 60.1 72.5 C 60.1 71.8 59.5 71.2 58.8 71.2 C 58.1 71.3 57.5 71.8 57.5 72.5 Z M 88.5 56.7 C 87.8 56.7 87.2 57.3 87.2 58 S 87.8 59.3 88.5 59.3 C 89.2 59.3 89.8 58.7 89.8 58 S 89.1 56.7 88.5 56.7 Z M 86.5 62.2 C 85.4 62.2 84.6 63.1 84.6 64.1 C 84.6 65.2 85.5 66 86.5 66 C 87.6 66 88.4 65.1 88.4 64.1 C 88.4 63 87.6 62.2 86.5 62.2 Z M 56.2 25.5 C 58.7 25.5 60.8 23.4 60.8 20.9 S 58.7 16.3 56.2 16.3 S 51.6 18.4 51.6 20.9 S 53.7 25.5 56.2 25.5 Z M 79.9 51.4 C 77.4 51.4 75.3 53.5 75.3 56 C 75.3 58.5 77.4 60.6 79.9 60.6 S 84.5 58.5 84.5 56 C 84.4 53.5 82.4 51.4 79.9 51.4 Z M 21.1 66.1 C 18.6 66.1 16.5 68.2 16.5 70.7 S 18.6 75.3 21.1 75.3 S 25.7 73.2 25.7 70.7 S 23.7 66.1 21.1 66.1 Z M 81.1 68.8 C 79.3 68.8 77.9 70.2 77.9 72 S 79.3 75.2 81.1 75.2 C 82.9 75.2 84.3 73.8 84.3 72 S 82.9 68.8 81.1 68.8 Z M 30.2 62.2 C 29.1 62.2 28.3 63.1 28.3 64.1 C 28.3 65.2 29.2 66 30.2 66 S 32.1 65.1 32.1 64.1 C 32.1 63 31.2 62.2 30.2 62.2 Z M 35.3 68.8 C 33.5 68.8 32.1 70.2 32.1 72 S 33.5 75.2 35.3 75.2 C 37.1 75.2 38.5 73.8 38.5 72 S 37.1 68.8 35.3 68.8 Z M 36.2 83.9 C 35.1 83.9 34.3 84.8 34.3 85.8 S 35.2 87.7 36.2 87.7 C 37.3 87.7 38.1 86.8 38.1 85.8 S 37.2 83.9 36.2 83.9 Z M 28.2 77.1 C 26.4 77.1 25 78.5 25 80.3 C 25 82.1 26.4 83.5 28.2 83.5 C 30 83.5 31.4 82.1 31.4 80.3 C 31.4 78.5 30 77.1 28.2 77.1 Z M 41 27.5 C 41 28.2 41.6 28.8 42.3 28.8 C 43 28.8 43.6 28.2 43.6 27.5 C 43.6 26.8 43 26.2 42.3 26.2 C 41.5 26.2 41 26.8 41 27.5 Z M 48.3 17.9 C 48.3 14.8 45.8 12.3 42.7 12.3 C 39.6 12.3 37.1 14.8 37.1 17.9 S 39.6 23.5 42.7 23.5 C 45.8 23.6 48.3 21.1 48.3 17.9 Z M 42.2 86.4 C 41.5 86.4 40.9 87 40.9 87.7 C 40.9 88.4 41.5 89 42.2 89 C 42.9 89 43.5 88.4 43.5 87.7 C 43.5 87 42.9 86.4 42.2 86.4 Z M 44.8 74.5 C 42.3 74.5 40.2 76.6 40.2 79.1 S 42.3 83.7 44.8 83.7 S 49.4 81.6 49.4 79.1 S 47.3 74.5 44.8 74.5 Z&quot;);fill:rgb(57, 233, 145);height:auto;inline-size:auto;overflow-clip-margin:0px;overflow-x:visible;overflow-y:visible;perspective-origin:0px 0px;transform-origin:0px 0px;user-select:none;width:auto;"/></g><g id="SvgjsG1013" featurekey="PPkF4s-0" transform="matrix(4.241926925857058,0,0,4.241926925857058,-7.746606987599827,74.01929259253446)" fill="#ffffff" style="block-size:auto;fill:rgb(255, 255, 255);height:auto;inline-size:auto;overflow-clip-margin:0px;overflow-x:visible;overflow-y:visible;perspective-origin:0px 0px;touch-action:none;transform:matrix(4.24193, 0, 0, 4.24193, -7.74661, 74.0193);transform-origin:0px 0px;user-select:none;width:auto;"><path d="M1.8262 20 l0 -14.111 l5.1074 0 c4.502 0 6.7285 2.832 6.7285 7.0508 c0 4.2285 -2.2266 7.0605 -6.7285 7.0605 l-5.1074 0 z M4.7559 17.4121 l2.0313 0 c2.5977 0 3.7891 -1.6211 3.7891 -4.4727 s-1.1914 -4.4727 -3.7891 -4.4727 l-2.0313 0 l0 8.9453 z M25.478078125 14.834 l-0.029297 0.67383 l-7.4414 0 c0.11719 1.6699 1.2305 2.4707 2.5684 2.4707 c1.0059 0 1.7871 -0.46875 2.168 -1.3574 l2.5781 0.38086 c-0.66406 2.0313 -2.4707 3.1934 -4.7266 3.1934 c-3.2422 0 -5.3613 -1.9141 -5.3613 -5.2148 s2.1777 -5.2344 5.2734 -5.2344 c2.8418 0 4.9609 1.5723 4.9707 5.0879 z M20.527378125 11.7383 c-1.2793 0 -2.168 0.5957 -2.4414 1.9336 l4.6094 0 c-0.14648 -1.2793 -1.0156 -1.9336 -2.168 -1.9336 z M26.240234375 20 l4.1211 -5.0293 l-4.1211 -5.0098 l3.5156 0 l2.3047 3.1641 l2.3242 -3.1641 l3.4863 0 l-4.1309 5.0195 l4.1309 5.0195 l-3.4863 0 l-2.3047 -3.1445 l-2.3145 3.1445 l-3.5254 0 z M39.042984375 5.888999999999999 l9.9316 0 l0 2.168 l-6.377 11.943 l-3.1836 0 l6.3965 -11.611 l-6.7676 0 l0 -2.5 z" style="block-size:auto;d:path(&quot;M 1.8262 20 L 1.8262 5.889 L 6.9336 5.889 C 11.4356 5.889 13.6621 8.721 13.6621 12.9398 C 13.6621 17.1683 11.4355 20.0003 6.9336 20.0003 L 1.8262 20.0003 Z M 4.7559 17.4121 L 6.7872 17.4121 C 9.3849 17.4121 10.5763 15.791 10.5763 12.9394 S 9.3849 8.4667 6.7872 8.4667 L 4.7559 8.4667 L 4.7559 17.412 Z M 25.4781 14.834 L 25.4488 15.5078 L 18.0074 15.5078 C 18.1246 17.1777 19.2379 17.9785 20.5758 17.9785 C 21.5817 17.9785 22.3629 17.5098 22.7438 16.6211 L 25.3219 17.002 C 24.6578 19.0333 22.8512 20.1954 20.5953 20.1954 C 17.3531 20.1954 15.234 18.2813 15.234 14.9806 S 17.4117 9.74619 20.5074 9.74619 C 23.3492 9.74619 25.4683 11.3185 25.4781 14.8341 Z M 20.5274 11.7383 C 19.2481 11.7383 18.3594 12.334 18.086 13.6719 L 22.6954 13.6719 C 22.5489 12.3926 21.6798 11.7383 20.5274 11.7383 Z M 26.2402 20 L 30.3613 14.9707 L 26.2402 9.9609 L 29.7558 9.9609 L 32.0605 13.125 L 34.3847 9.9609 L 37.871 9.9609 L 33.7401 14.9804 L 37.871 19.9999 L 34.3847 19.9999 L 32.08 16.8554 L 29.7655 19.9999 L 26.2401 19.9999 Z M 39.043 5.889 L 48.9746 5.889 L 48.9746 8.057 L 42.5976 20 L 39.414 20 L 45.8105 8.389 L 39.0429 8.389 L 39.0429 5.889 Z&quot;);fill:rgb(255, 255, 255);height:auto;inline-size:auto;overflow-clip-margin:0px;overflow-x:visible;overflow-y:visible;perspective-origin:0px 0px;transform-origin:0px 0px;user-select:none;width:auto;"/></g></svg>